<?xml version="1.0" encoding="UTF-8"?>
<svg width="144px" height="144px" viewBox="0 0 144 144" version="1.1" xmlns="http://www.w3.org/2000/svg" xmlns:xlink="http://www.w3.org/1999/xlink">
    <!-- Generator: Sketch 59.1 (86144) - https://sketch.com -->
    <title>safari-pinned-tab</title>
    <desc>Created with Sketch.</desc>
    <defs>
        <polygon id="path-1" points="0.0449996358 0.159053662 79.974824 0.159053662 79.974824 90.0947419 0.0449996358 90.0947419"></polygon>
        <polygon id="path-3" points="0 0.413822438 17.4793175 0.413822438 17.4793175 18.5376528 0 18.5376528"></polygon>
        <polygon id="path-5" points="0.691374795 0.234962638 17.5526584 0.234962638 17.5526584 25.823553 0.691374795 25.823553"></polygon>
    </defs>
    <g id="safari-pinned-tab" stroke="none" stroke-width="1" fill="none" fill-rule="evenodd">
        <g id="编组" transform="translate(0.000000, 5.625000)">
            <path d="M2.99832971,90.4052701 C1.76095112,90.4052701 0.758136478,89.4046074 0.758136478,88.1672288 L0.758136478,34.5015817 C0.758136478,33.2642031 1.76095112,32.2613884 2.99832971,32.2613884 C4.23355633,32.2613884 5.23637097,33.2642031 5.23637097,34.5015817 L5.23637097,88.1672288 C5.23637097,89.4046074 4.23355633,90.4052701 2.99832971,90.4052701" id="Fill-1" fill="#FEFEFE"></path>
            <path d="M140.30582,90.4115108 C139.068441,90.4115108 138.065626,89.4086961 138.065626,88.1734695 L138.067778,30.0295879 L94.3807825,30.0274359 C93.1455558,30.0274359 92.1427412,29.0267732 92.1427412,27.7893946 C92.1427412,26.5520161 93.1455558,25.5492014 94.3807825,25.5492014 L140.30582,25.5513534 C141.541046,25.5513534 142.546013,26.554168 142.546013,27.7893946 L142.543861,88.1734695 C142.543861,89.4108481 141.541046,90.4115108 140.30582,90.4115108" id="Fill-3" fill="#FEFEFE"></path>
            <path d="M14.1132173,29.142764 C13.5386433,29.142764 12.9683731,28.9232638 12.5315247,28.4864154 L1.74373542,17.6577388 C0.870038541,16.7840419 0.870038541,15.3658985 1.74373542,14.4922016 C2.6174323,13.6185047 4.03342379,13.6185047 4.90927263,14.4922016 L15.69491,25.3208782 C16.5707588,26.194575 16.5707588,27.6127185 15.69491,28.4864154 C15.2580615,28.9232638 14.6877914,29.142764 14.1132173,29.142764" id="Fill-5" fill="#FEFEFE"></path>
            <path d="M106.164285,46.1146487 C98.0363216,46.1146487 91.4448592,52.7039586 91.4448592,60.8340739 C91.4427077,68.9641892 98.0363216,75.5534991 106.164285,75.5534991 C114.2944,75.5534991 120.885862,68.9641892 120.885862,60.8340739 C120.885862,52.7061106 114.2944,46.1146487 106.164285,46.1146487 M106.164285,50.2679368 C111.989648,50.2700887 116.730422,55.0087107 116.730422,60.8340739 C116.730422,66.6594371 111.989648,71.400211 106.164285,71.400211 C100.338922,71.400211 95.5981478,66.6594371 95.5981478,60.8340739 C95.5981478,55.0087107 100.338922,50.2679368 106.164285,50.2679368" id="Fill-7" fill="#FEFEFE"></path>
            <path d="M45.7537409,41.6488956 L27.2231896,41.6488956 C25.0217317,41.6488956 23.2399066,43.4307207 23.2399066,45.6321786 L23.2399066,64.1605779 C23.2399066,66.3598839 25.0217317,68.143861 27.2231896,68.143861 L45.7537409,68.143861 C47.9508949,68.143861 49.737024,66.3598839 49.737024,64.1605779 L49.737024,45.6321786 C49.737024,43.4328727 47.9530468,41.6488956 45.7537409,41.6488956 M44.4561074,63.9905729 L28.5186712,63.9884209 C27.896754,63.9884209 27.3953466,63.4848616 27.3953466,62.8650964 L27.3953466,46.9276602 C27.3953466,46.305743 27.896754,45.8021837 28.5186712,45.8021837 L44.4561074,45.8043356 C45.0801766,45.8043356 45.5815839,46.3078949 45.5815839,46.9276602 L45.5815839,62.8650964 C45.5815839,63.4870136 45.0780246,63.9905729 44.4561074,63.9905729" id="Fill-9" fill="#FEFEFE"></path>
            <path d="M81.8180543,98.9827784 C80.6151071,98.9827784 79.6359641,99.9619215 79.6359641,101.162717 C79.6359641,102.367816 80.6151071,103.344807 81.8180543,103.344807 C83.0210015,103.344807 84.0001445,102.367816 84.0001445,101.164869 C84.0001445,99.9619215 83.0210015,98.9827784 81.8180543,98.9827784" id="Fill-11" fill="#FEFEFE"></path>
            <g transform="translate(23.194046, 0.318921)">
                <mask id="mask-2" fill="white">
                    <use xlink:href="#path-1"></use>
                </mask>
                <g id="Clip-14"></g>
                <path d="M79.6224303,1.19070461 C78.9553219,0.149154633 77.5716098,-0.154272115 76.5300598,0.512836339 L47.5302098,19.0606033 L2.28519286,19.0606033 C1.04781428,19.0606033 0.0449996358,20.061266 0.0449996358,21.2986446 C0.0449996358,22.5338712 1.04781428,23.5366858 2.28519286,23.5366858 L45.9442132,23.5388378 L45.9442132,87.8567006 C45.9442132,89.0940792 46.9448759,90.0947419 48.1822545,90.0947419 C49.4196331,90.0947419 50.4224477,89.0940792 50.4224477,87.8567006 L50.4224477,22.5274153 L78.9424101,4.28307508 C79.9839601,3.61596663 80.2873868,2.23225458 79.6224303,1.19070461" id="Fill-13" fill="#42B7B6" mask="url(#mask-2)"></path>
            </g>
            <g transform="translate(0.000000, 106.242640)">
                <mask id="mask-4" fill="white">
                    <use xlink:href="#path-3"></use>
                </mask>
                <g id="Clip-16"></g>
                <path d="M1.63441571,0.413822438 C0.732743318,0.413822438 -0.00107598138,1.14764174 -0.00107598138,2.04931413 L-0.00107598138,14.0637222 C-0.00107598138,16.5320235 1.90125909,18.5376528 4.23613868,18.5376528 L13.5089462,18.5376528 C15.6974923,18.5376528 17.4793175,16.6611412 17.4793175,14.3542372 L17.4793175,2.04931413 C17.4793175,1.14764174 16.7454982,0.413822438 15.8438258,0.413822438 C14.9443053,0.413822438 14.210486,1.14764174 14.210486,2.04931413 L14.2083341,14.3542372 C14.2083341,14.9008357 13.8468043,15.2666694 13.5089462,15.2666694 L10.4682228,15.2666694 L10.4682228,2.04931413 C10.4682228,1.14764174 9.73655548,0.413822438 8.83488309,0.413822438 C7.93321069,0.413822438 7.19939139,1.14764174 7.19939139,2.04931413 L7.19939139,15.2666694 L4.23613868,15.2666694 C3.71321173,15.2666694 3.2699074,14.7157669 3.2699074,14.0637222 L3.27205937,2.04931413 C3.27205937,1.14764174 2.53824007,0.413822438 1.63441571,0.413822438" id="Fill-15" fill="#FEFEFE" mask="url(#mask-4)"></path>
            </g>
            <path d="M81.8161175,106.897052 C80.9144451,106.897052 80.1827778,107.628719 80.1827778,108.530392 L80.1806258,123.18741 C80.1806258,124.089082 80.9144451,124.822902 81.8161175,124.822902 C82.7199419,124.822902 83.4537612,124.089082 83.4537612,123.189562 L83.4537612,108.530392 C83.4537612,107.628719 82.7199419,106.897052 81.8161175,106.897052" id="Fill-17" fill="#FEFEFE"></path>
            <path d="M61.4501572,124.672695 C61.9149812,124.672695 62.3604375,124.474714 62.6681681,124.1304 L68.0588348,118.117816 L68.1556732,118.227566 L73.4473496,124.1304 C73.7593842,124.474714 74.2048405,124.672695 74.6675125,124.672695 C75.0699295,124.672695 75.4572828,124.524209 75.7585576,124.257366 C76.42997,123.654816 76.485921,122.61757 75.8855234,121.946158 L70.2559888,115.668882 L70.3334595,115.582804 L75.8855234,109.391607 C76.485921,108.720195 76.42997,107.682949 75.7564056,107.082551 C75.0892972,106.482153 74.0498992,106.538104 73.4473496,107.209517 L68.0588348,113.219949 L67.9619965,113.110199 L62.6681681,107.207365 C62.0677705,106.538104 61.0348284,106.480001 60.3612641,107.082551 C59.6920037,107.682949 59.6317487,108.718043 60.2364502,109.389455 L65.8638328,115.668882 L65.7863622,115.754961 L60.2342983,121.946158 C59.6317487,122.61757 59.6898517,123.654816 60.3612641,124.255214 C60.6603869,124.524209 61.0477402,124.672695 61.4501572,124.672695" id="Fill-19" fill="#FEFEFE"></path>
            <path d="M55.0256876,124.831509 C55.92736,124.831509 56.6611793,124.09769 56.6611793,123.196018 L56.6611793,113.47345 C56.6611793,109.662324 53.7775492,106.559194 50.2311146,106.559194 L47.0010185,106.559194 C43.6676282,106.559194 40.9518512,109.475103 40.9518512,113.058121 L40.9518512,123.196018 C40.9518512,124.09769 41.6856705,124.831509 42.5873429,124.831509 C43.4890153,124.831509 44.2206826,124.09769 44.2206826,123.196018 L44.2206826,113.058121 C44.2206826,111.278448 45.470973,109.828025 47.0010185,109.828025 L50.2311146,109.828025 C51.9742044,109.828025 53.3901959,111.463517 53.3901959,113.47345 L53.388044,123.196018 C53.388044,124.09769 54.1240152,124.831509 55.0256876,124.831509" id="Fill-21" fill="#FEFEFE"></path>
            <path d="M121.644214,124.832585 C122.548038,124.832585 123.281857,124.098766 123.281857,123.197094 L123.281857,113.476678 C123.281857,109.6634 120.396075,106.56027 116.851793,106.56027 L113.621697,106.56027 C110.288306,106.56027 107.572529,109.476179 107.572529,113.061349 L107.572529,123.199246 C107.572529,124.100918 108.306349,124.832585 109.208021,124.832585 C110.109693,124.832585 110.841361,124.100918 110.841361,123.199246 L110.841361,113.061349 C110.841361,111.279524 112.089499,109.831253 113.621697,109.831253 L116.851793,109.831253 C118.594883,109.831253 120.008722,111.466745 120.008722,113.476678 L120.008722,123.197094 C120.008722,124.098766 120.742541,124.832585 121.644214,124.832585" id="Fill-23" fill="#FEFEFE"></path>
            <g transform="translate(125.563840, 106.242640)">
                <mask id="mask-6" fill="white">
                    <use xlink:href="#path-5"></use>
                </mask>
                <g id="Clip-26"></g>
                <path d="M13.4703851,12.3032015 C12.5235215,14.0269236 10.872966,15.04265 9.12126835,15.04265 C8.85872889,15.04265 8.59403747,15.0211304 8.33149802,14.9759392 C8.2863068,14.9673313 8.23896362,14.9651794 8.1937724,14.9630274 L8.13351744,14.9608755 L8.01515949,14.9372039 C7.91616921,14.9156842 7.81717892,14.8963166 7.7203406,14.8640371 C5.63293672,14.1990806 4.12871476,12.1288925 3.9759254,9.71439026 L3.97377344,9.69717456 L3.97807737,9.67995886 C4.00390092,9.55729698 4.01466073,9.44324296 4.01466073,9.33134089 C4.01035681,8.25966344 4.27720019,7.20735366 4.78075947,6.29061752 C5.51673074,4.94994473 6.6744867,4.02675271 8.04098305,3.68674259 C9.29557733,3.37470799 10.5953628,3.60496801 11.7057756,4.33233142 C14.1955965,5.96782311 14.9875188,9.54223324 13.4703851,12.3032015 M17.2212562,19.2432813 C17.460124,18.3523688 17.5698741,17.4205689 17.5462025,16.4801612 C17.5483545,16.4543376 17.5505065,16.4392739 17.5505065,16.4242101 L17.5526584,8.57169804 C17.5526584,8.53081075 17.5505065,8.48777149 17.5483545,8.44473224 L17.5483545,1.99099594 C17.5483545,1.09147551 16.8145352,0.359808172 15.9128628,0.359808172 C15.0671414,0.359808172 14.3548418,1.0226127 14.2902829,1.87263799 L14.2709152,2.11365782 L14.0793905,1.96517239 C13.2831643,1.34971104 12.433139,0.895646898 11.5443784,0.613739777 C9.46127846,-0.0512167135 7.24260486,0.163979562 5.30368642,1.22274524 C3.2248904,2.35682961 1.66686937,4.38397852 1.02128054,6.78772092 C-0.259137296,11.5478625 2.30169838,16.5683916 6.7261338,17.9800792 C8.23035577,18.4599669 9.84002391,18.4814865 11.3528537,18.0403342 C11.4905793,17.9994469 11.624001,17.9370399 11.7746384,17.8402016 C12.6311196,17.5238631 13.3929144,17.1020784 14.0600229,16.5748475 L14.2687633,16.4112984 L14.2709152,16.6759898 C14.2752191,17.2871472 14.2063563,17.8638732 14.0621748,18.39756 C13.6446941,19.953429 12.6547912,21.2553665 11.3485498,21.9676662 C10.1929458,22.6003432 8.87379263,22.731613 7.63426209,22.3356518 C7.08120766,22.1591909 6.5647366,21.8880436 6.09991264,21.5265138 C5.80939767,21.3048617 5.4607797,21.1865037 5.10355389,21.1865037 C5.03253912,21.1865037 4.96367631,21.1908076 4.89266154,21.1994155 C4.45796506,21.2553665 4.07276373,21.4770187 3.80592035,21.8213327 C3.54122893,22.1677987 3.42287098,22.5981913 3.47882201,23.0285838 C3.53477304,23.4632803 3.75427324,23.8484816 4.10073924,24.115325 C4.87329387,24.7092667 5.72547112,25.159027 6.64005529,25.4495419 C8.71239543,26.1123465 10.989172,25.8885423 12.9151787,24.8383845 C15.0025826,23.6978442 16.5713634,21.6599355 17.2212562,19.2432813" id="Fill-25" fill="#FEFEFE" mask="url(#mask-6)"></path>
            </g>
            <path d="M99.7903864,118.661402 C99.1663172,119.793334 98.1893261,120.651967 97.04233,121.075904 L97.0057466,121.08236 C96.8916926,121.090968 96.7819425,121.112487 96.6721924,121.142615 C96.2482557,121.267429 95.8135593,121.327684 95.3788628,121.327684 C94.9011271,121.327684 94.4233913,121.254517 93.9564154,121.106032 C91.1696236,120.219423 89.5814751,116.974263 90.4142847,113.875437 C90.6574565,112.967308 91.1093687,112.125891 91.7226781,111.443719 C91.8840753,111.265106 92.0583843,111.084341 92.247757,110.9294 C92.2714286,110.90788 92.2994041,110.88636 92.3273796,110.864841 L92.3682669,110.834713 C92.9170174,110.412929 93.517415,110.11811 94.1565479,109.958864 C95.4455736,109.638222 96.7883984,109.879242 97.9375465,110.632429 C99.3944253,111.590052 100.362809,113.275039 100.519902,115.132183 L100.519902,116.195253 C100.444583,117.090469 100.199259,117.914671 99.7903864,118.661402 M102.155394,124.880574 C103.057066,124.880574 103.788733,124.146755 103.788733,123.245083 L103.797341,122.545695 C103.801645,122.517719 103.805949,122.487592 103.805949,122.457464 L103.805949,108.060833 C103.805949,107.159161 103.07213,106.425342 102.170457,106.425342 C101.268785,106.425342 100.537118,107.159161 100.537118,108.060833 L100.537118,108.377172 L100.326225,108.213623 C99.525695,107.593857 98.6692138,107.137641 97.7826052,106.853582 C95.6930494,106.188626 93.4743758,106.405974 91.5376093,107.46474 C91.4192513,107.529299 91.3051973,107.602465 91.1911433,107.677784 L90.9565793,107.824117 C90.8274616,107.910196 90.7047997,107.996274 90.5821378,108.088809 C90.4142847,108.209319 90.2550395,108.329829 90.1000982,108.461098 L89.9795882,108.394388 L90.0635148,108.493378 C89.2522248,109.18631 88.5743566,110.014815 88.0557335,110.957375 C87.2831789,112.366911 86.8829138,113.972275 86.9001295,115.605615 C86.9022815,115.719669 86.9173452,115.838027 86.9431688,115.956385 C87.1303896,119.82131 89.5470437,123.13318 92.9622086,124.219922 C93.1085421,124.267265 93.2527236,124.299544 93.4076649,124.331824 L93.5970376,124.372711 C93.7734986,124.452334 93.9026163,124.495373 94.0252782,124.516892 C96.2783832,124.91931 98.4970568,124.364103 100.309009,122.973935 L100.519902,122.812538 L100.519902,123.245083 C100.519902,124.146755 101.253721,124.880574 102.155394,124.880574" id="Fill-27" fill="#FEFEFE"></path>
            <path d="M24.1039196,113.900399 C24.6074789,111.513873 26.7551377,109.749263 29.223439,109.749263 C31.6874364,109.751415 33.8350952,111.513873 34.3408064,113.900399 L24.1039196,113.900399 Z M29.223439,106.560054 C24.5795034,106.560054 20.8006568,110.336749 20.8006568,114.980685 L20.8006568,116.340725 C20.8006568,120.984661 24.5795034,124.763507 29.223439,124.763507 L30.2456213,124.763507 C32.3975841,124.763507 34.4505565,123.838163 35.8730039,122.222039 C36.157063,121.903549 36.2969406,121.492524 36.2689651,121.066435 C36.2431415,120.640347 36.0516168,120.250842 35.7309744,119.971086 C35.4124839,119.689179 35.001459,119.532086 34.5753704,119.575125 C34.1514337,119.600949 33.7597765,119.792473 33.4800213,120.113116 C32.6622755,121.040612 31.4829999,121.572147 30.2456213,121.572147 L29.223439,121.572147 C26.6324758,121.572147 24.4138022,119.626772 24.0458166,117.09176 L36.0494649,117.089608 C36.9296176,117.089608 37.6440693,116.373005 37.6440693,115.495004 L37.6440693,114.980685 C37.6440693,110.336749 33.8673746,106.560054 29.223439,106.560054 L29.223439,106.560054 Z" id="Fill-29" fill="#FEFEFE"></path>
        </g>
    </g>
</svg>